<svg width="23" height="22" viewBox="0 0 23 22" fill="none" xmlns="http://www.w3.org/2000/svg">
<g clip-path="url(#clip0_424_115)">
<path d="M19.7656 17.6337C19.8399 17.708 19.8988 17.7963 19.9391 17.8934C19.9793 17.9905 20 18.0945 20 18.1997C20 18.3048 19.9793 18.4089 19.9391 18.506C19.8988 18.6031 19.8399 18.6913 19.7656 18.7656C19.6912 18.84 19.603 18.8989 19.5059 18.9391C19.4088 18.9794 19.3047 19.0001 19.1996 19.0001C19.0945 19.0001 18.9904 18.9794 18.8933 18.9391C18.7962 18.8989 18.708 18.84 18.6336 18.7656L12 12.131L5.36637 18.7656C5.21626 18.9157 5.01268 19.0001 4.8004 19.0001C4.58812 19.0001 4.38454 18.9157 4.23443 18.7656C4.08433 18.6155 4 18.4119 4 18.1997C4 17.9874 4.08433 17.7838 4.23443 17.6337L10.8691 11.0001L4.23443 4.36643C4.08433 4.21633 4 4.01274 4 3.80046C4 3.58818 4.08433 3.3846 4.23443 3.23449C4.38454 3.08439 4.58812 3.00006 4.8004 3.00006C5.01268 3.00006 5.21626 3.08439 5.36637 3.23449L12 9.86912L18.6336 3.23449C18.7837 3.08439 18.9873 3.00006 19.1996 3.00006C19.4119 3.00006 19.6155 3.08439 19.7656 3.23449C19.9157 3.3846 20 3.58818 20 3.80046C20 4.01274 19.9157 4.21633 19.7656 4.36643L13.1309 11.0001L19.7656 17.6337Z" fill="#CB3F3F"/>
</g>
<defs>
<clipPath id="clip0_424_115">
<rect width="22" height="22" fill="white" transform="translate(0.5)"/>
</clipPath>
</defs>
</svg>
