<svg width="25" height="23" viewBox="0 0 25 23" fill="none" xmlns="http://www.w3.org/2000/svg">
<path d="M23.9611 5.0143L9.73992 19.2355C9.65737 19.3181 9.55934 19.3837 9.45144 19.4284C9.34354 19.4731 9.22788 19.4961 9.11108 19.4961C8.99427 19.4961 8.87861 19.4731 8.77071 19.4284C8.66281 19.3837 8.56478 19.3181 8.48223 19.2355L2.26047 13.0137C2.0937 12.8469 2 12.6207 2 12.3849C2 12.149 2.0937 11.9228 2.26047 11.756C2.42725 11.5892 2.65346 11.4955 2.88932 11.4955C3.12518 11.4955 3.35138 11.5892 3.51816 11.756L9.11108 17.35L22.7034 3.75661C22.8702 3.58983 23.0964 3.49614 23.3322 3.49614C23.5681 3.49614 23.7943 3.58983 23.9611 3.75661C24.1279 3.92339 24.2216 4.14959 24.2216 4.38545C24.2216 4.62132 24.1279 4.84752 23.9611 5.0143Z" fill="white"/>
</svg>
