<svg width="29" height="29" viewBox="0 0 29 29" fill="none" xmlns="http://www.w3.org/2000/svg">
<g clip-path="url(#clip0_338_142)">
<path d="M24 13.5C24 13.721 23.9122 13.933 23.7559 14.0893C23.5996 14.2455 23.3877 14.3333 23.1667 14.3333H14.8333V22.6667C14.8333 22.8877 14.7455 23.0996 14.5893 23.2559C14.433 23.4122 14.221 23.5 14 23.5C13.779 23.5 13.567 23.4122 13.4107 23.2559C13.2545 23.0996 13.1667 22.8877 13.1667 22.6667V14.3333H4.83333C4.61232 14.3333 4.40036 14.2455 4.24408 14.0893C4.0878 13.933 4 13.721 4 13.5C4 13.279 4.0878 13.067 4.24408 12.9107C4.40036 12.7545 4.61232 12.6667 4.83333 12.6667H13.1667V4.33333C13.1667 4.11232 13.2545 3.90036 13.4107 3.74408C13.567 3.5878 13.779 3.5 14 3.5C14.221 3.5 14.433 3.5878 14.5893 3.74408C14.7455 3.90036 14.8333 4.11232 14.8333 4.33333V12.6667H23.1667C23.3877 12.6667 23.5996 12.7545 23.7559 12.9107C23.9122 13.067 24 13.279 24 13.5Z" fill="white"/>
</g>
<defs>
<clipPath id="clip0_338_142">
<rect width="28" height="28" fill="white" transform="translate(0.5 0.5)"/>
</clipPath>
</defs>
</svg>
